HIERARCHY
ROOT Hips
{
	OFFSET 0.00000 0.00000 0.00000
	CHANNELS 6 Xposition Yposition Zposition Zrotation Yrotation Xrotation 
	JOINT LHipJoint
	{
		OFFSET 0 0 0
		CHANNELS 3 Zrotation Yrotation Xrotation
		JOINT LeftUpLeg
		{
			OFFSET 1.78158 -1.79992 1.25746
			CHANNELS 3 Zrotation Yrotation Xrotation
			JOINT LeftLeg
			{
				OFFSET 2.48433 -6.82566 0.00000
				CHANNELS 3 Zrotation Yrotation Xrotation
				JOINT LeftFoot
				{
					OFFSET 2.69722 -7.41057 0.00000
					CHANNELS 3 Zrotation Yrotation Xrotation
					JOINT LeftToeBase
					{
						OFFSET 0.10733 -0.29489 1.75071
						CHANNELS 3 Zrotation Yrotation Xrotation
						End Site
						{
							OFFSET 0.00000 -0.00000 0.90224
						}
					}
				}
			}
		}
	}
	JOINT RHipJoint
	{
		OFFSET 0 0 0
		CHANNELS 3 Zrotation Yrotation Xrotation
		JOINT RightUpLeg
		{
			OFFSET -1.91234 -1.79993 1.25746
			CHANNELS 3 Zrotation Yrotation Xrotation
			JOINT RightLeg
			{
				OFFSET -2.33122 -6.40498 0.00000
				CHANNELS 3 Zrotation Yrotation Xrotation
				JOINT RightFoot
				{
					OFFSET -2.75667 -7.57390 0.00000
					CHANNELS 3 Zrotation Yrotation Xrotation
					JOINT RightToeBase
					{
						OFFSET -0.15946 -0.43811 1.78925
						CHANNELS 3 Zrotation Yrotation Xrotation
						End Site
						{
							OFFSET -0.00000 -0.00000 0.93158
						}
					}
				}
			}
		}
	}
	JOINT LowerBack
	{
		OFFSET 0 0 0
		CHANNELS 3 Zrotation Yrotation Xrotation
		JOINT Spine
		{
			OFFSET -0.02267 2.03993 -0.26238
			CHANNELS 3 Zrotation Yrotation Xrotation
			JOINT Spine1
			{
				OFFSET 0.02263 2.06220 -0.00892
				CHANNELS 3 Zrotation Yrotation Xrotation
				JOINT Neck
				{
					OFFSET 0 0 0
					CHANNELS 3 Zrotation Yrotation Xrotation
					JOINT Neck1
					{
						OFFSET -0.06177 1.95978 0.28606
						CHANNELS 3 Zrotation Yrotation Xrotation
						JOINT Head
						{
							OFFSET 0.08482 1.96576 -0.43252
							CHANNELS 3 Zrotation Yrotation Xrotation
							End Site
							{
								OFFSET 0.02787 2.02739 -0.18071
							}
						}
					}
				}
				JOINT LeftShoulder
				{
					OFFSET 0 0 0
					CHANNELS 3 Zrotation Yrotation Xrotation
					JOINT LeftArm
					{
						OFFSET 3.80978 1.64906 0.29973
						CHANNELS 3 Zrotation Yrotation Xrotation
						JOINT LeftForeArm
						{
							OFFSET 4.93042 -0.00000 0.00000
							CHANNELS 3 Zrotation Yrotation Xrotation
							JOINT LeftHand
							{
								OFFSET 3.68177 -0.00000 0.00000
								CHANNELS 3 Zrotation Yrotation Xrotation
								JOINT LeftFingerBase
								{
									OFFSET 0 0 0
									CHANNELS 3 Zrotation Yrotation Xrotation
									JOINT LeftHandIndex1
									{
										OFFSET 0.72148 -0.00000 0.00000
										CHANNELS 3 Zrotation Yrotation Xrotation
										End Site
										{
											OFFSET 0.58168 -0.00000 0.00000
										}
									}
								}
								JOINT LThumb
								{
									OFFSET 0 0 0
									CHANNELS 3 Zrotation Yrotation Xrotation
									End Site
									{
										OFFSET 0.59056 -0.00000 0.59056
									}
								}
							}
						}
					}
				}
				JOINT RightShoulder
				{
					OFFSET 0 0 0
					CHANNELS 3 Zrotation Yrotation Xrotation
					JOINT RightArm
					{
						OFFSET -3.49270 1.85636 0.09297
						CHANNELS 3 Zrotation Yrotation Xrotation
						JOINT RightForeArm
						{
							OFFSET -5.07905 -0.00000 -0.00000
							CHANNELS 3 Zrotation Yrotation Xrotation
							JOINT RightHand
							{
								OFFSET -3.54394 -0.00000 0.00000
								CHANNELS 3 Zrotation Yrotation Xrotation
								JOINT RightFingerBase
								{
									OFFSET 0 0 0
									CHANNELS 3 Zrotation Yrotation Xrotation
									JOINT RightHandIndex1
									{
										OFFSET -0.68116 -0.00000 0.00000
										CHANNELS 3 Zrotation Yrotation Xrotation
										End Site
										{
											OFFSET -0.54917 -0.00000 0.00000
										}
									}
								}
								JOINT RThumb
								{
									OFFSET 0 0 0
									CHANNELS 3 Zrotation Yrotation Xrotation
									End Site
									{
										OFFSET -0.55755 -0.00000 0.55755
									}
								}
							}
						}
					}
				}
			}
		}
	}
}
MOTION
Frames: 11
Frame Time: .0083333
-10.4935 18.0947 -16.2742 0 0 0 0 0 0 -21 0 0 0 0 0 0 0 0 0 0 0 0 0 0 21 0 0 0 0 0 0 0 0 0 0 0 0 0 0 0 0 0 0 0 0 0 0 -16 0 0 21 0 0 11 0 0 0 -8 0 0 0 0 0 0 0 0 0 0 0 0 0 0 0 0 0 0 0 0 8 0 0 0 0 0 0 0 0 0 0 0 0 0 0 0 0 0
-10.4935 18.0947 -16.2742 -158.4190 84.9971 -153.8500 0.0000 0.0000 0.0000 -11.3888 -18.2862 -3.6325 1.1299 6.7513 18.9807 1.2316 4.7722 -23.1819 0.0087 -0.6029 -1.6568 0.0000 0.0000 0.0000 17.2655 -10.3729 -1.0201 0.0000 0.0000 0.0000 -0.0804 -6.8317 -11.4823 -0.2503 -3.2192 8.8897 1.2101 -0.2163 5.0154 1.9079 -0.0770 -2.5529 1.3081 -0.0335 -5.4635 -6.5429 -4.6873 -21.6817 2.7922 -4.6932 33.7709 1.4729 -2.1422 15.8742 0.0000 -0.0000 0.0000 -92.2439 5.1271 19.1089 13.1490 -21.5052 -2.5077 -0.0000 0.0000 -15.2091 32.6264 5.7108 3.6449 -7.1250 0.0000 -0.0000 5.0064 36.7115 -1.0238 0.0000 -0.0000 0.0000 82.0369 -8.8242 22.1323 -15.9343 25.4315 -3.6177 0.0000 0.0000 20.2485 -17.7908 -15.4114 4.8741 7.1250 -0.0000 -0.0000 9.2598 -45.9174 -0.2115
-10.4904 18.0936 -16.2820 -159.0480 84.9168 -154.4910 0.0000 0.0000 0.0000 -11.4427 -18.3681 -3.6139 1.1325 6.7588 19.0027 1.2362 4.7040 -23.1803 0.0061 -0.5038 -1.3842 0.0000 0.0000 0.0000 17.2148 -10.4882 -0.9901 0.0000 0.0000 -0.0000 -0.0862 -6.7875 -11.5412 -0.2661 -3.3182 9.1658 1.2553 -0.2278 5.0288 1.9030 -0.0884 -2.5648 1.2790 -0.0408 -5.4837 -6.5226 -4.6906 -21.7050 2.7143 -4.6759 33.7597 1.4387 -2.1440 15.8698 -0.0000 -0.0000 0.0000 -92.2773 5.1941 19.0741 13.1774 -21.5466 -2.5181 -0.0000 0.0000 -15.1280 32.5373 5.7344 3.6474 -7.1250 0.0000 -0.0000 4.9313 36.7338 -1.0057 -0.0000 -0.0000 0.0000 81.9934 -8.9170 22.0702 -15.8653 25.3376 -3.5881 0.0000 0.0000 20.3136 -17.9274 -15.4517 4.9264 7.1250 -0.0000 -0.0000 9.1441 -45.9761 -0.2221
-10.4874 18.0922 -16.2892 -159.4320 84.8412 -154.8950 0.0000 0.0000 0.0000 -11.4811 -18.4693 -3.5814 1.1363 6.7699 19.0355 1.2478 4.6339 -23.2356 0.0027 -0.3366 -0.9247 0.0000 0.0000 0.0000 17.1873 -10.5893 -0.9573 0.0000 -0.0000 0.0000 -0.0883 -6.7772 -11.5701 -0.2633 -3.3013 9.1187 1.3420 -0.2196 5.0527 1.8768 -0.0716 -2.5742 1.2017 -0.0362 -5.5077 -6.5345 -4.7193 -21.7302 2.7006 -4.7076 33.7590 1.4280 -2.1607 15.8775 0.0000 0.0000 0.0000 -92.2652 5.2340 19.0445 13.1877 -21.5616 -2.5218 -0.0000 0.0000 -15.0069 32.3579 5.7300 3.6196 -7.1250 0.0000 -0.0000 4.7790 36.7177 -0.9763 0.0000 0.0000 0.0000 81.9784 -9.0349 21.9792 -15.8230 25.2801 -3.5700 0.0000 0.0000 20.3769 -17.9884 -15.4884 4.9556 7.1250 -0.0000 -0.0000 9.0973 -46.0215 -0.2313
-10.4848 18.0907 -16.2953 -159.6470 84.7865 -155.1330 0.0000 0.0000 0.0000 -11.5142 -18.5718 -3.5328 1.1393 6.7786 19.0610 1.2626 4.5866 -23.3298 0.0006 -0.1589 -0.4366 0.0000 0.0000 0.0000 17.1702 -10.6624 -0.9252 0.0000 -0.0000 0.0000 -0.0874 -6.7934 -11.5713 -0.2475 -3.2015 8.8403 1.4331 -0.1976 5.0894 1.8373 -0.0365 -2.5836 1.1064 -0.0231 -5.5390 -6.5606 -4.7580 -21.7496 2.7360 -4.7678 33.7573 1.4352 -2.1837 15.8872 -0.0000 0.0000 0.0000 -92.2219 5.2454 18.9986 13.1798 -21.5502 -2.5190 -0.0000 0.0000 -14.8703 32.1542 5.6841 3.5627 -7.1250 0.0000 -0.0000 4.6053 36.6514 -0.9481 -0.0000 0.0000 0.0000 81.9896 -9.1577 21.8546 -15.7927 25.2388 -3.5571 0.0000 0.0000 20.4628 -17.9214 -15.4882 4.9359 7.1250 -0.0000 -0.0000 9.1590 -46.0127 -0.2308
-10.4825 18.0895 -16.3000 -159.8070 84.7596 -155.3150 0.0000 0.0000 0.0000 -11.5520 -18.6592 -3.4832 1.1420 6.7863 19.0837 1.2768 4.5714 -23.4361 0.0000 -0.0330 -0.0906 0.0000 0.0000 0.0000 17.1493 -10.7047 -0.8982 0.0000 -0.0000 0.0000 -0.0850 -6.8196 -11.5570 -0.2298 -3.0857 8.5174 1.4945 -0.1732 5.1355 1.7968 -0.0002 -2.5942 1.0266 -0.0085 -5.5768 -6.5844 -4.7890 -21.7608 2.7959 -4.8275 33.7463 1.4527 -2.2028 15.8912 0.0000 0.0000 0.0000 -92.1715 5.2338 18.9219 13.1598 -21.5209 -2.5116 -0.0000 0.0000 -14.7485 32.0049 5.6006 3.4904 -7.1250 0.0000 -0.0000 4.4773 36.5445 -0.9333 0.0000 0.0000 0.0000 82.0126 -9.2619 21.7035 -15.7591 25.1929 -3.5428 0.0000 0.0000 20.5786 -17.7304 -15.4337 4.8634 7.1250 -0.0000 -0.0000 9.3210 -45.9324 -0.2164
-10.4806 18.0887 -16.3038 -159.9990 84.7572 -155.5210 0.0000 0.0000 0.0000 -11.5979 -18.7152 -3.4453 1.1440 6.7920 19.1007 1.2862 4.5849 -23.5198 0.0000 0.0069 0.0189 0.0000 0.0000 0.0000 17.1161 -10.7218 -0.8798 0.0000 -0.0000 0.0000 -0.0829 -6.8396 -11.5413 -0.2193 -3.0147 8.3197 1.5082 -0.1578 5.1827 1.7676 0.0211 -2.6061 0.9868 0.0007 -5.6164 -6.5968 -4.7994 -21.7681 2.8545 -4.8612 33.7252 1.4728 -2.2100 15.8871 0.0000 -0.0000 0.0000 -92.1390 5.2101 18.8091 13.1368 -21.4873 -2.5032 -0.0000 0.0000 -14.6609 31.9646 5.5011 3.4234 -7.1250 0.0000 -0.0000 4.4417 36.4256 -0.9388 0.0000 -0.0000 0.0000 82.0256 -9.3322 21.5494 -15.7139 25.1311 -3.5236 0.0000 0.0000 20.7046 -17.4730 -15.3380 4.7597 7.1250 -0.0000 -0.0000 9.5333 -45.8020 -0.1904
-10.4786 18.0882 -16.3074 -160.2410 84.7698 -155.7660 0.0000 0.0000 0.0000 -11.6477 -18.7303 -3.4313 1.1457 6.7969 19.1152 1.2895 4.6076 -23.5586 0.0000 -0.0331 -0.0910 0.0000 0.0000 0.0000 17.0718 -10.7233 -0.8722 0.0000 -0.0000 0.0000 -0.0820 -6.8468 -11.5324 -0.2181 -3.0063 8.2963 1.4777 -0.1580 5.2208 1.7577 0.0192 -2.6183 0.9942 0.0005 -5.6509 -6.5956 -4.7861 -21.7795 2.8910 -4.8564 33.7004 1.4887 -2.2030 15.8785 -0.0000 0.0000 0.0000 -92.1406 5.1867 18.6637 13.1196 -21.4622 -2.4969 -0.0000 0.0000 -14.6045 32.0402 5.4170 3.3812 -7.1250 0.0000 -0.0000 4.5041 36.3313 -0.9625 -0.0000 0.0000 0.0000 82.0085 -9.3660 21.4248 -15.6584 25.0553 -3.5000 0.0000 0.0000 20.8023 -17.2318 -15.2448 4.6624 7.1250 -0.0000 -0.0000 9.7307 -45.6765 -0.1640
-10.4764 18.0877 -16.3111 -160.4970 84.7866 -156.0140 0.0000 0.0000 0.0000 -11.6924 -18.7046 -3.4468 1.1478 6.8027 19.1321 1.2879 4.6145 -23.5502 0.0003 -0.1157 -0.3179 0.0000 0.0000 0.0000 17.0253 -10.7180 -0.8750 0.0000 0.0000 -0.0000 -0.0818 -6.8467 -11.5287 -0.2208 -3.0249 8.3482 1.4226 -0.1726 5.2432 1.7675 -0.0032 -2.6299 1.0377 -0.0084 -5.6756 -6.5818 -4.7556 -21.8007 2.8926 -4.8172 33.6808 1.4943 -2.1852 15.8707 0.0000 0.0000 0.0000 -92.1769 5.1726 18.4954 13.1130 -21.4525 -2.4944 -0.0000 0.0000 -14.5570 32.1878 5.3761 3.3750 -7.1250 0.0000 -0.0000 4.6280 36.2918 -0.9935 0.0000 0.0000 0.0000 81.9520 -9.3715 21.3496 -15.6002 24.9755 -3.4754 0.0000 0.0000 20.8403 -17.0750 -15.2097 4.6072 7.1250 -0.0000 -0.0000 9.8654 -45.6212 -0.1527
-10.4735 18.0870 -16.3153 -160.7140 84.8009 -156.2150 0.0000 0.0000 0.0000 -11.7253 -18.6486 -3.4865 1.1503 6.8101 19.1540 1.2849 4.5887 -23.5115 0.0009 -0.1917 -0.5268 0.0000 0.0000 0.0000 16.9864 -10.7111 -0.8852 0.0000 -0.0000 0.0000 -0.0811 -6.8527 -11.5216 -0.2179 -3.0051 8.2928 1.3676 -0.1936 5.2491 1.7894 -0.0337 -2.6403 1.0945 -0.0209 -5.6897 -6.5559 -4.7209 -21.8296 2.8575 -4.7618 33.6699 1.4853 -2.1643 15.8663 -0.0000 0.0000 0.0000 -92.2335 5.1705 18.3202 13.1162 -21.4573 -2.4956 -0.0000 0.0000 -14.4905 32.3358 5.3911 3.4038 -7.1250 0.0000 -0.0000 4.7533 36.3177 -1.0176 -0.0000 0.0000 0.0000 81.8624 -9.3616 21.3153 -15.5467 24.9021 -3.4528 0.0000 0.0000 20.8193 -17.0285 -15.2737 4.6128 7.1250 -0.0000 -0.0000 9.9247 -45.6807 -0.1684
-10.4701 18.0863 -16.3198 -160.8670 84.8114 -156.3500 0.0000 0.0000 0.0000 -11.7465 -18.5780 -3.5355 1.1531 6.8180 19.1772 1.2830 4.5327 -23.4648 0.0013 -0.2316 -0.6364 0.0000 0.0000 0.0000 16.9589 -10.7045 -0.8973 0.0000 0.0000 -0.0000 -0.0787 -6.8764 -11.5028 -0.2021 -2.8950 7.9865 1.3309 -0.2095 5.2446 1.8116 -0.0562 -2.6495 1.1406 -0.0300 -5.6965 -6.5172 -4.6946 -21.8550 2.7947 -4.7137 33.6624 1.4608 -2.1489 15.8618 0.0000 -0.0000 0.0000 -92.2866 5.1760 18.1606 13.1250 -21.4700 -2.4988 -0.0000 0.0000 -14.3937 32.4188 5.4527 3.4535 -7.1250 0.0000 -0.0000 4.8248 36.3950 -1.0238 0.0000 -0.0000 0.0000 81.7592 -9.3474 21.2809 -15.5005 24.8388 -3.4335 0.0000 0.0000 20.7796 -17.0716 -15.4386 4.6736 7.1250 -0.0000 -0.0000 9.9284 -45.8542 -0.2114
